<?xml version="1.0" standalone="no"?>
<!DOCTYPE svg PUBLIC "-//W3C//DTD SVG 20010904//EN"
 "http://www.w3.org/TR/2001/REC-SVG-20010904/DTD/svg10.dtd">
<svg version="1.0" xmlns="http://www.w3.org/2000/svg"
 width="150.000000pt" height="150.000000pt" viewBox="0 0 150.000000 150.000000"
 preserveAspectRatio="xMidYMid meet">
<metadata>
Created by potrace 1.14, written by Peter Selinger 2001-2017
</metadata>
<g transform="translate(0.000000,150.000000) scale(0.100000,-0.100000)"
fill="#000000" stroke="none">
<path d="M593 1328 l-121 -50 -12 -67 c-26 -137 -79 -252 -159 -341 -26 -29
-33 -32 -41 -20 -11 17 -13 32 -10 73 3 46 -31 30 -60 -28 -21 -42 -25 -64
-25 -140 0 -77 4 -96 24 -132 14 -24 31 -43 39 -43 10 0 12 -4 4 -12 -9 -13
-18 -48 -29 -119 -4 -31 -1 -39 22 -55 14 -11 45 -39 68 -63 53 -55 151 -125
213 -152 53 -24 52 -24 -16 -70 -23 -15 -5 -16 263 -15 158 0 287 3 287 6 0 3
-21 18 -46 34 l-45 29 49 27 c27 15 65 38 83 51 41 29 201 176 212 194 7 14
-9 108 -24 137 -6 12 -3 21 11 31 71 50 74 271 4 348 -26 29 -34 23 -34 -24 0
-24 -6 -51 -13 -61 -12 -16 -18 -13 -68 41 -65 71 -114 163 -148 284 l-26 91
-90 35 c-50 19 -99 39 -110 45 -41 23 -80 16 -202 -34z"/>
</g>
</svg>
